<svg width="202" height="137" viewBox="0 0 202 137" fill="none" xmlns="http://www.w3.org/2000/svg">
<path d="M123.5 96.604C120.931 93.0623 117.632 90.3193 113.604 88.3748C109.577 86.4304 105.375 85.4582 101 85.4582C96.6252 85.4582 92.4064 86.4304 88.3439 88.3748C84.2814 90.3193 80.9654 93.0623 78.396 96.604C81.5904 99.2429 85.1147 101.205 88.9689 102.489C92.8231 103.774 96.8335 104.417 101 104.417C105.167 104.417 109.16 103.774 112.979 102.489C116.799 101.205 120.306 99.2429 123.5 96.604ZM136.417 68.9998C136.417 64.6943 135.74 60.5797 134.386 56.6561C133.031 52.7325 130.931 49.104 128.083 45.7707C124.75 49.8679 120.705 53.045 115.948 55.3019C111.191 57.5589 106.208 58.6873 101 58.6873C95.7918 58.6873 90.7918 57.5589 86.0002 55.3019C81.2085 53.045 77.146 49.8679 73.8127 45.7707C71.0349 49.104 68.9689 52.7325 67.6147 56.6561C66.2606 60.5797 65.5835 64.6943 65.5835 68.9998C65.5835 73.3054 66.2606 77.42 67.6147 81.3436C68.9689 85.2672 71.0349 88.8957 73.8127 92.229C77.146 88.1318 81.2085 84.9373 86.0002 82.6457C90.7918 80.354 95.7918 79.2082 101 79.2082C106.208 79.2082 111.191 80.354 115.948 82.6457C120.705 84.9373 124.75 88.1318 128.083 92.229C130.931 88.8957 133.031 85.2672 134.386 81.3436C135.74 77.42 136.417 73.3054 136.417 68.9998ZM123.5 41.2915C120.306 38.6526 116.799 36.7082 112.979 35.4582C109.16 34.2082 105.167 33.5832 101 33.5832C96.8335 33.5832 92.8231 34.2082 88.9689 35.4582C85.1147 36.7082 81.5904 38.6526 78.396 41.2915C80.9654 44.8332 84.2814 47.5762 88.3439 49.5207C92.4064 51.4651 96.6252 52.4373 101 52.4373C105.375 52.4373 109.577 51.4651 113.604 49.5207C117.632 47.5762 120.931 44.8332 123.5 41.2915ZM142.667 68.9998C142.667 74.6943 141.573 80.0762 139.386 85.1457C137.198 90.2151 134.212 94.6422 130.427 98.4269C126.643 102.212 122.215 105.198 117.146 107.385C112.077 109.573 106.695 110.667 101 110.667C95.2363 110.667 89.837 109.573 84.8022 107.385C79.7675 105.198 75.3578 102.212 71.5731 98.4269C67.7884 94.6422 64.8022 90.2151 62.6147 85.1457C60.4272 80.0762 59.3335 74.6943 59.3335 68.9998C59.3335 63.236 60.4272 57.8366 62.6147 52.8019C64.8022 47.7672 67.7884 43.3575 71.5731 39.5728C75.3578 35.788 79.7675 32.8019 84.8022 30.6144C89.837 28.4269 95.2363 27.3332 101 27.3332C106.695 27.3332 112.077 28.4269 117.146 30.6144C122.215 32.8019 126.643 35.788 130.427 39.5728C134.212 43.3575 137.198 47.7672 139.386 52.8019C141.573 57.8366 142.667 63.236 142.667 68.9998Z" fill="#FCEC5C"/>
<path d="M36.9 107V95.1H5V83.85L28.05 35H41.8L18.75 83.85H36.9V65.1H49.1V83.85H55.85V95.1H49.1V107H36.9ZM177.818 107V95.1H145.918V83.85L168.968 35H182.718L159.668 83.85H177.818V65.1H190.018V83.85H196.768V95.1H190.018V107H177.818Z" fill="#FCEC5C"/>
</svg>
