<svg width="110" height="58" viewBox="0 0 110 58" fill="none" xmlns="http://www.w3.org/2000/svg">
<g clip-path="url(#clip0_368_273)">
<path d="M16.0691 15.8575H17.8509V22.6281C16.2473 24.2317 13.7529 24.9444 11.4366 24.9444C5.91323 24.9444 1.99341 21.2027 1.99341 15.8575C1.99341 10.6905 5.91323 6.77063 11.4366 6.77063C14.1092 6.77063 16.4255 7.6615 18.0291 9.44324L16.7818 10.6905C15.3564 9.08689 13.5747 8.55237 11.4366 8.55237C6.98228 8.55237 3.77515 11.5813 3.77515 15.8575C3.77515 20.1337 6.98228 23.3408 11.4366 23.3408C13.2184 23.3408 14.6438 22.9844 16.0691 21.9154V15.8575Z" fill="white"/>
<path d="M21.7708 15.8575C21.7708 10.6905 25.6906 6.94885 31.0358 6.94885C36.2028 6.94885 40.3008 10.6905 40.3008 15.8575C40.3008 21.0246 36.2028 24.9444 31.0358 24.9444C25.6906 24.9444 21.7708 21.0246 21.7708 15.8575ZM38.8754 15.8575C38.8754 11.4032 35.4901 8.0179 31.0358 8.0179C26.4033 8.0179 23.018 11.4032 23.018 15.8575C23.018 20.4901 26.4033 23.6972 31.0358 23.6972C35.4901 23.6972 38.8754 20.4901 38.8754 15.8575Z" fill="white"/>
<path d="M62.3943 19.7774H52.0603L49.744 24.7662H48.3186L56.5146 6.94885H57.7618L65.9578 24.7662H64.5324L62.3943 19.7774ZM61.8598 18.7083L57.2273 8.37424L52.4166 18.7083H61.8598Z" fill="white"/>
<path d="M83.7752 6.94885V24.7662H82.7061L70.5903 9.26511V24.7662H69.1649V6.94885H70.4121L82.528 22.45V6.94885H83.7752Z" fill="white"/>
<path d="M90.0112 6.94885H96.96C102.662 6.94885 106.581 10.6905 106.581 15.8575C106.581 21.0246 102.662 24.7662 96.96 24.7662H90.0112V6.94885ZM96.96 23.6972C101.949 23.6972 105.156 20.4901 105.156 15.8575C105.156 11.4032 101.949 8.19607 96.96 8.19607H91.2584V23.6972H96.96Z" fill="white"/>
<path d="M17.4945 37.5947C17.4945 41.5145 14.8219 43.8307 10.1894 43.8307H5.37866V49.3541H3.59692V31.5367H10.1894C14.8219 31.5367 17.4945 33.853 17.4945 37.5947ZM15.5346 37.5947C15.5346 34.7439 13.7528 33.1403 10.1894 33.1403H5.37866V42.049H10.1894C13.7528 42.049 15.5346 40.4454 15.5346 37.5947Z" fill="white"/>
<path d="M38.1626 44.3653H27.8286L25.5123 49.3541H24.0869L32.2829 31.5367H33.7083L41.9043 49.3541H40.4789L38.1626 44.3653ZM37.6281 43.2962L32.9956 32.9621L28.3631 43.2962H37.6281ZM32.9956 30.1114H31.5702L35.1337 27.0824H36.9154L32.9956 30.1114Z" fill="white"/>
<path d="M50.1003 31.5367H57.2273C62.9289 31.5367 66.6705 35.2784 66.6705 40.4454C66.6705 45.6125 62.9289 49.3541 57.2273 49.3541H50.1003V31.5367ZM57.0491 48.2851C62.2162 48.2851 65.4233 45.078 65.4233 40.4454C65.4233 35.9911 62.2162 32.784 57.0491 32.784H51.5257V48.2851H57.0491Z" fill="white"/>
<path d="M88.5859 48.2851V49.3541H76.2919V31.5367H88.2295V32.784H77.5391V39.7327H87.1605V40.98H77.5391V48.2851H88.5859Z" fill="white"/>
<path d="M98.3854 31.5367H99.6326V48.2851H109.967V49.3541H98.3854V31.5367Z" fill="white"/>
<path d="M20.5234 1.78174H0.0334473V0H20.5234V1.78174Z" fill="white"/>
<path d="M20.5234 57.0156H0.0334473V55.2339H20.5234V57.0156Z" fill="white"/>
</g>
<defs>
<clipPath id="clip0_368_273">
<rect width="109.976" height="57.0156" fill="white" transform="translate(0.0118408)"/>
</clipPath>
</defs>
</svg>

